<svg width="1024" height="1024" viewBox="0 0 128 128" fill="none" xmlns="http://www.w3.org/2000/svg"><g transform="translate(64 64) scale(1) translate(-64 -63)">
  <path d="M37 52 L41 15 L62 33 Z M66 33 L87 15 L91 52 Z" fill="#FF7A6B" stroke="#FF7A6B" stroke-width="5" stroke-linejoin="round"/>
  <path d="M64 26c-19.5 0-33 13.4-33 31 0 22.6 33 55 33 55s33-32.4 33-55c0-17.6-13.5-31-33-31z" fill="#FF7A6B"/>
  <path d="M45 25 L47.5 36 L54.5 31.5 Z M83 25 L80.5 36 L73.5 31.5 Z" fill="#B892FF" stroke="#B892FF" stroke-width="2" stroke-linejoin="round"/>
  <ellipse cx="52.5" cy="57" rx="4.4" ry="7.4" fill="#160F1F"/>
  <ellipse cx="75.5" cy="57" rx="4.4" ry="7.4" fill="#160F1F"/>
  <path d="M60 69.5h8l-4 4.8z" fill="#160F1F" stroke="#160F1F" stroke-width="1.6" stroke-linejoin="round"/></g></svg>
